<svg xmlns="http://www.w3.org/2000/svg" viewBox="0 0 128 128" role="img" aria-labelledby="title desc">
  <title id="title">Mandelbrot Set icon</title>
  <desc id="desc">Stylised colourful Mandelbrot region on a dark rounded-square background</desc>
  <defs>
    <linearGradient id="bg" x1="0%" y1="0%" x2="100%" y2="100%">
      <stop offset="0%" stop-color="#0a1024"/>
      <stop offset="100%" stop-color="#1f2760"/>
    </linearGradient>
    <linearGradient id="fractal" x1="0%" y1="0%" x2="100%" y2="100%">
      <stop offset="0%" stop-color="#67e8f9"/>
      <stop offset="28%" stop-color="#38bdf8"/>
      <stop offset="55%" stop-color="#a78bfa"/>
      <stop offset="78%" stop-color="#f472b6"/>
      <stop offset="100%" stop-color="#fbbf24"/>
    </linearGradient>
    <linearGradient id="sheen" x1="0%" y1="0%" x2="100%" y2="100%">
      <stop offset="0%" stop-color="rgba(255,255,255,0.26)"/>
      <stop offset="100%" stop-color="rgba(255,255,255,0)"/>
    </linearGradient>
    <filter id="glow" x="-30%" y="-30%" width="160%" height="160%">
      <feGaussianBlur stdDeviation="2.4" result="blur"/>
      <feMerge>
        <feMergeNode in="blur"/>
        <feMergeNode in="SourceGraphic"/>
      </feMerge>
    </filter>
  </defs>
  <rect width="128" height="128" rx="26" fill="url(#bg)"/>
  <g opacity="0.14">
    <circle cx="64" cy="64" r="44" fill="none" stroke="#dbeafe" stroke-width="1"/>
    <path d="M64 18v92M18 64h92" stroke="#dbeafe" stroke-width="1"/>
  </g>
  <g filter="url(#glow)">
    <path d="M38 80
             C42 57 57 44 75 42
             C90 41 102 50 104 63
             C106 75 97 86 83 89
             C92 92 98 99 98 108
             C98 116 92 122 84 122
             C76 122 71 116 71 108
             C71 100 76 94 83 91
             C71 91 61 86 55 78
             C49 70 49 59 56 54
             C62 49 69 51 72 58
             C74 64 71 70 65 73
             C69 74 73 78 73 83
             C73 89 68 94 61 94
             C51 94 42 88 38 80Z"
          fill="none" stroke="url(#fractal)" stroke-width="8" stroke-linecap="round" stroke-linejoin="round" opacity="0.5"/>
    <path d="M38 80
             C42 57 57 44 75 42
             C90 41 102 50 104 63
             C106 75 97 86 83 89
             C92 92 98 99 98 108
             C98 116 92 122 84 122
             C76 122 71 116 71 108
             C71 100 76 94 83 91
             C71 91 61 86 55 78
             C49 70 49 59 56 54
             C62 49 69 51 72 58
             C74 64 71 70 65 73
             C69 74 73 78 73 83
             C73 89 68 94 61 94
             C51 94 42 88 38 80Z"
          fill="none" stroke="url(#fractal)" stroke-width="4.6" stroke-linecap="round" stroke-linejoin="round"/>
  </g>
  <circle cx="103" cy="27" r="6" fill="#ffffff" opacity="0.9"/>
  <path d="M97 27h12M103 21v12" stroke="#ffffff" stroke-width="1.4" stroke-linecap="round" opacity="0.9"/>
  <path d="M8 8 C34 10, 54 16, 76 34 S118 48, 120 56" fill="none" stroke="#ffffff" stroke-width="10" opacity="0.08"/>
  <rect x="1.5" y="1.5" width="125" height="125" rx="24.5" fill="none" stroke="#ffffff" stroke-width="2" opacity="0.14"/>
</svg>
