<svg xmlns="http://www.w3.org/2000/svg" viewBox="0 0 128 128" role="img" aria-labelledby="title">
  <title id="title">Mandelbrot Set icon</title>
  <defs>
    <linearGradient id="bg" x1="0%" y1="0%" x2="100%" y2="100%">
      <stop offset="0%" stop-color="#0b1020"/>
      <stop offset="100%" stop-color="#25114d"/>
    </linearGradient>
    <linearGradient id="glow" x1="0%" y1="0%" x2="100%" y2="100%">
      <stop offset="0%" stop-color="#22d3ee"/>
      <stop offset="50%" stop-color="#a78bfa"/>
      <stop offset="100%" stop-color="#fbbf24"/>
    </linearGradient>
    <filter id="soft" x="-20%" y="-20%" width="140%" height="140%">
      <feGaussianBlur stdDeviation="1.8"/>
    </filter>
  </defs>
  <rect width="128" height="128" rx="26" fill="url(#bg)"/>
  <g opacity="0.22">
    <circle cx="64" cy="64" r="46" fill="none" stroke="#cbd5e1" stroke-width="1"/>
    <path d="M64 16v96M16 64h96" stroke="#94a3b8" stroke-width="1"/>
  </g>
  <g filter="url(#soft)">
    <path d="M41 65
             C41 51 50 42 63 42
             C76 42 85 51 85 64
             C85 75 78 83 67 85
             C74 87 80 92 80 100
             C80 108 74 114 66 114
             C58 114 52 108 52 100
             C52 92 58 87 65 85
             C53 84 45 76 45 66
             C45 60 49 56 54 56
             C58 56 61 59 61 64
             C61 69 58 72 54 72
             C58 73 61 76 61 80
             C61 85 57 89 52 89
             C46 89 41 84 41 78Z"
          fill="none" stroke="url(#glow)" stroke-width="5.5" stroke-linecap="round" stroke-linejoin="round"/>
  </g>
  <path d="M41 65
           C41 51 50 42 63 42
           C76 42 85 51 85 64
           C85 75 78 83 67 85
           C74 87 80 92 80 100
           C80 108 74 114 66 114
           C58 114 52 108 52 100
           C52 92 58 87 65 85
           C53 84 45 76 45 66
           C45 60 49 56 54 56
           C58 56 61 59 61 64
           C61 69 58 72 54 72
           C58 73 61 76 61 80
           C61 85 57 89 52 89
           C46 89 41 84 41 78Z"
        fill="none" stroke="url(#glow)" stroke-width="3.8" stroke-linecap="round" stroke-linejoin="round"/>
  <circle cx="96" cy="34" r="6" fill="#22d3ee" opacity="0.85"/>
</svg>
